<svg width="52" height="59" viewBox="0 0 52 59" fill="none" xmlns="http://www.w3.org/2000/svg">
<path d="M17.5 28.5C16.9477 28.5 16.5 28.9477 16.5 29.5C16.5 30.0523 16.9477 30.5 17.5 30.5V29.5V28.5ZM35.2071 30.2071C35.5976 29.8166 35.5976 29.1834 35.2071 28.7929L28.8431 22.4289C28.4526 22.0384 27.8195 22.0384 27.4289 22.4289C27.0384 22.8195 27.0384 23.4526 27.4289 23.8431L33.0858 29.5L27.4289 35.1569C27.0384 35.5474 27.0384 36.1805 27.4289 36.5711C27.8195 36.9616 28.4526 36.9616 28.8431 36.5711L35.2071 30.2071ZM17.5 29.5V30.5H34.5V29.5V28.5H17.5V29.5Z" fill="#8C8C8C"/>
</svg>
